<svg width="39" height="36" viewBox="0 0 39 36" fill="none" xmlns="http://www.w3.org/2000/svg">
<path d="M26.6 21.2C27.4333 21.2 28.175 20.875 28.825 20.225C29.475 19.575 29.8 18.825 29.8 17.975C29.8 17.125 29.475 16.3833 28.825 15.75C28.175 15.1167 27.4333 14.8 26.6 14.8C25.7667 14.8 25.025 15.1167 24.375 15.75C23.725 16.3833 23.4 17.125 23.4 17.975C23.4 18.825 23.725 19.575 24.375 20.225C25.025 20.875 25.7667 21.2 26.6 21.2ZM3 30.35V33V3V30.35ZM3 36C2.23333 36 1.54167 35.7 0.925 35.1C0.308333 34.5 0 33.8 0 33V3C0 2.23333 0.308333 1.54167 0.925 0.925C1.54167 0.308333 2.23333 0 3 0H33C33.8 0 34.5 0.308333 35.1 0.925C35.7 1.54167 36 2.23333 36 3V9.7H33V3H3V33H33V26.35H36V33C36 33.8 35.7 34.5 35.1 35.1C34.5 35.7 33.8 36 33 36H3ZM20.9 27.35C19.7667 27.35 18.8667 27.0167 18.2 26.35C17.5333 25.6833 17.2 24.8 17.2 23.7V12.35C17.2 11.2167 17.5333 10.325 18.2 9.675C18.8667 9.025 19.7667 8.7 20.9 8.7H34.4C35.5333 8.7 36.4333 9.025 37.1 9.675C37.7667 10.325 38.1 11.2167 38.1 12.35V23.7C38.1 24.8 37.7667 25.6833 37.1 26.35C36.4333 27.0167 35.5333 27.35 34.4 27.35H20.9ZM35.1 24.35V11.7H20.2V24.35H35.1Z" fill="#2F9FD8"/>
</svg>
