<svg width="36" height="36" viewBox="0 0 36 36" fill="none" xmlns="http://www.w3.org/2000/svg">
<path d="M9.45 10.95C9.85 10.95 10.2 10.8 10.5 10.5C10.8 10.2 10.95 9.85 10.95 9.45C10.95 9.05 10.8 8.7 10.5 8.4C10.2 8.1 9.85 7.95 9.45 7.95C9.05 7.95 8.7 8.1 8.4 8.4C8.1 8.7 7.95 9.05 7.95 9.45C7.95 9.85 8.1 10.2 8.4 10.5C8.7 10.8 9.05 10.95 9.45 10.95ZM9.45 19.5C9.85 19.5 10.2 19.35 10.5 19.05C10.8 18.75 10.95 18.4 10.95 18C10.95 17.6 10.8 17.25 10.5 16.95C10.2 16.65 9.85 16.5 9.45 16.5C9.05 16.5 8.7 16.65 8.4 16.95C8.1 17.25 7.95 17.6 7.95 18C7.95 18.4 8.1 18.75 8.4 19.05C8.7 19.35 9.05 19.5 9.45 19.5ZM9.45 28.05C9.85 28.05 10.2 27.9 10.5 27.6C10.8 27.3 10.95 26.95 10.95 26.55C10.95 26.15 10.8 25.8 10.5 25.5C10.2 25.2 9.85 25.05 9.45 25.05C9.05 25.05 8.7 25.2 8.4 25.5C8.1 25.8 7.95 26.15 7.95 26.55C7.95 26.95 8.1 27.3 8.4 27.6C8.7 27.9 9.05 28.05 9.45 28.05ZM3 36C2.2 36 1.5 35.7 0.9 35.1C0.3 34.5 0 33.8 0 33V3C0 2.2 0.3 1.5 0.9 0.9C1.5 0.3 2.2 0 3 0H26.1L36 9.9V33C36 33.8 35.7 34.5 35.1 35.1C34.5 35.7 33.8 36 33 36H3ZM3 33H33V11.5714H24.45V3H3V33Z" fill="#2F9FD8"/>
</svg>
