<svg width="32" height="40" viewBox="0 0 32 40" fill="none" xmlns="http://www.w3.org/2000/svg">
<path d="M8 19.5V16.5H24V19.5H8ZM8 11.5V8.5H24V11.5H8ZM3 24.5H19C19.881 24.5 20.7013 24.7 21.4608 25.1C22.2203 25.5 22.8667 26.0333 23.4 26.7L29 34V3H3V24.5ZM3 37H27.5L21.05 28.55C20.7978 28.2206 20.4931 27.9633 20.1358 27.778C19.7786 27.5927 19.4 27.5 19 27.5H3V37ZM29 40H3C2.2 40 1.5 39.7 0.9 39.1C0.3 38.5 0 37.8 0 37V3C0 2.2 0.3 1.5 0.9 0.9C1.5 0.3 2.2 0 3 0H29C29.8 0 30.5 0.3 31.1 0.9C31.7 1.5 32 2.2 32 3V37C32 37.8 31.7 38.5 31.1 39.1C30.5 39.7 29.8 40 29 40Z" fill="#2F9FD8"/>
</svg>
