<svg width="17" height="19" viewBox="0 0 17 19" fill="none" xmlns="http://www.w3.org/2000/svg">
<path d="M4.88501 11.735C4.63001 11.735 4.41626 11.6487 4.24376 11.4762C4.07126 11.3037 3.98501 11.09 3.98501 10.835C3.98501 10.58 4.07126 10.3662 4.24376 10.1937C4.41626 10.0212 4.63001 9.93499 4.88501 9.93499C5.14001 9.93499 5.35376 10.0212 5.52626 10.1937C5.69876 10.3662 5.78501 10.58 5.78501 10.835C5.78501 11.09 5.69876 11.3037 5.52626 11.4762C5.35376 11.6487 5.14001 11.735 4.88501 11.735ZM8.86751 11.735C8.61251 11.735 8.39876 11.6487 8.22626 11.4762C8.05376 11.3037 7.96751 11.09 7.96751 10.835C7.96751 10.58 8.05376 10.3662 8.22626 10.1937C8.39876 10.0212 8.61251 9.93499 8.86751 9.93499C9.12251 9.93499 9.33626 10.0212 9.50876 10.1937C9.68126 10.3662 9.76751 10.58 9.76751 10.835C9.76751 11.09 9.68126 11.3037 9.50876 11.4762C9.33626 11.6487 9.12251 11.735 8.86751 11.735ZM12.6925 11.735C12.4375 11.735 12.2238 11.6487 12.0513 11.4762C11.8788 11.3037 11.7925 11.09 11.7925 10.835C11.7925 10.58 11.8788 10.3662 12.0513 10.1937C12.2238 10.0212 12.4375 9.93499 12.6925 9.93499C12.9475 9.93499 13.1613 10.0212 13.3338 10.1937C13.5063 10.3662 13.5925 10.58 13.5925 10.835C13.5925 11.09 13.5063 11.3037 13.3338 11.4762C13.1613 11.6487 12.9475 11.735 12.6925 11.735ZM2.05001 18.8C1.69001 18.8 1.37501 18.665 1.10501 18.395C0.835012 18.125 0.700012 17.81 0.700012 17.45V3.49999C0.700012 3.13999 0.835012 2.82499 1.10501 2.55499C1.37501 2.28499 1.69001 2.14999 2.05001 2.14999H3.51251V0.799988H4.97501V2.14999H12.625V0.799988H14.0875V2.14999H15.55C15.91 2.14999 16.225 2.28499 16.495 2.55499C16.765 2.82499 16.9 3.13999 16.9 3.49999V17.45C16.9 17.81 16.765 18.125 16.495 18.395C16.225 18.665 15.91 18.8 15.55 18.8H2.05001ZM2.05001 17.45H15.55V7.77499H2.05001V17.45ZM2.05001 6.42499H15.55V3.49999H2.05001V6.42499Z" fill="#2F9FD8"/>
</svg>
