<svg width="17" height="18" viewBox="0 0 17 18" fill="none" xmlns="http://www.w3.org/2000/svg">
<path d="M1.75002 15.75H2.74002L12.7075 5.78251L11.7175 4.79251L1.75002 14.76V15.75ZM15.565 4.81501L12.685 1.93501L13.63 0.990013C13.885 0.735013 14.2 0.607513 14.575 0.607513C14.95 0.607513 15.265 0.735013 15.52 0.990013L16.51 1.98001C16.765 2.23501 16.8925 2.55001 16.8925 2.92501C16.8925 3.30001 16.765 3.61501 16.51 3.87001L15.565 4.81501ZM14.62 5.76001L3.28002 17.1H0.400024V14.22L11.74 2.88001L14.62 5.76001ZM12.2125 5.28751L11.7175 4.79251L12.7075 5.78251L12.2125 5.28751Z" fill="#2F9FD8"/>
</svg>
