<svg width="38" height="32" viewBox="0 0 38 32" fill="none" xmlns="http://www.w3.org/2000/svg">
<path d="M26 19.85C24.3 19.85 22.8917 19.2917 21.775 18.175C20.6583 17.0583 20.1 15.65 20.1 13.95C20.1 12.25 20.6583 10.8417 21.775 9.725C22.8917 8.60833 24.3 8.05 26 8.05C27.7 8.05 29.1083 8.60833 30.225 9.725C31.3417 10.8417 31.9 12.25 31.9 13.95C31.9 15.65 31.3417 17.0583 30.225 18.175C29.1083 19.2917 27.7 19.85 26 19.85ZM14 32V28.7C14 28.0712 14.15 27.4723 14.45 26.9034C14.75 26.3345 15.15 25.9333 15.65 25.7C17.15 24.6333 18.7917 23.8417 20.575 23.325C22.3583 22.8083 24.1667 22.55 26 22.55C27.8333 22.55 29.6333 22.8333 31.4 23.4C33.1667 23.9667 34.8167 24.7333 36.35 25.7C36.8167 26.0333 37.2083 26.4583 37.525 26.975C37.8417 27.4917 38 28.0667 38 28.7V32H14ZM16.75 28.45V29H35.25V28.45C33.95 27.5833 32.45 26.8833 30.75 26.35C29.05 25.8167 27.4667 25.55 26 25.55C24.5333 25.55 22.9417 25.8167 21.225 26.35C19.5083 26.8833 18.0167 27.5833 16.75 28.45ZM26 16.85C26.8667 16.85 27.5667 16.5833 28.1 16.05C28.6333 15.5167 28.9 14.8167 28.9 13.95C28.9 13.0833 28.6333 12.3833 28.1 11.85C27.5667 11.3167 26.8667 11.05 26 11.05C25.1333 11.05 24.4333 11.3167 23.9 11.85C23.3667 12.3833 23.1 13.0833 23.1 13.95C23.1 14.8167 23.3667 15.5167 23.9 16.05C24.4333 16.5833 25.1333 16.85 26 16.85ZM0 19.5V16.5H15.3V19.5H0ZM0 3V0H23.65V3H0ZM17.45 11.25H0V8.25H19C18.6333 8.68333 18.3212 9.14868 18.0637 9.64605C17.8061 10.1434 17.6015 10.678 17.45 11.25Z" fill="#2F9FD8"/>
</svg>
