<svg width="46" height="32" viewBox="0 0 46 32" fill="none" xmlns="http://www.w3.org/2000/svg">
<path d="M0.900024 32V27.3C0.900024 26.1333 1.20002 25.075 1.80002 24.125C2.40002 23.175 3.23336 22.4667 4.30002 22C6.73336 20.9333 8.92502 20.1667 10.875 19.7C12.825 19.2333 14.8334 19 16.9 19C18.9667 19 20.9667 19.2333 22.9 19.7C24.8334 20.1667 27.0167 20.9333 29.45 22C30.5167 22.4667 31.3584 23.175 31.975 24.125C32.5917 25.075 32.9 26.1333 32.9 27.3V32H0.900024ZM35.9 32V27.3C35.9 25.2 35.3667 23.475 34.3 22.125C33.2334 20.775 31.8334 19.6833 30.1 18.85C32.4 19.1167 34.5667 19.5083 36.6 20.025C38.6334 20.5417 40.2834 21.1333 41.55 21.8C42.65 22.4333 43.5167 23.2167 44.15 24.15C44.7834 25.0833 45.1 26.1333 45.1 27.3V32H35.9ZM16.9 15.95C14.7 15.95 12.9 15.25 11.5 13.85C10.1 12.45 9.40002 10.65 9.40002 8.45001C9.40002 6.25001 10.1 4.45001 11.5 3.05001C12.9 1.65001 14.7 0.950012 16.9 0.950012C19.1 0.950012 20.9 1.65001 22.3 3.05001C23.7 4.45001 24.4 6.25001 24.4 8.45001C24.4 10.65 23.7 12.45 22.3 13.85C20.9 15.25 19.1 15.95 16.9 15.95ZM34.9 8.45001C34.9 10.65 34.2 12.45 32.8 13.85C31.4 15.25 29.6 15.95 27.4 15.95C27.0334 15.95 26.625 15.925 26.175 15.875C25.725 15.825 25.3167 15.7333 24.95 15.6C25.75 14.7667 26.3584 13.7417 26.775 12.525C27.1917 11.3083 27.4 9.95001 27.4 8.45001C27.4 6.95001 27.1917 5.62501 26.775 4.47501C26.3584 3.32501 25.75 2.26668 24.95 1.30001C25.3167 1.20001 25.725 1.11668 26.175 1.05001C26.625 0.983346 27.0334 0.950012 27.4 0.950012C29.6 0.950012 31.4 1.65001 32.8 3.05001C34.2 4.45001 34.9 6.25001 34.9 8.45001ZM3.90002 29H29.9V27.3C29.9 26.7667 29.7417 26.25 29.425 25.75C29.1084 25.25 28.7167 24.9 28.25 24.7C25.85 23.6333 23.8334 22.9167 22.2 22.55C20.5667 22.1833 18.8 22 16.9 22C15 22 13.225 22.1833 11.575 22.55C9.92502 22.9167 7.90002 23.6333 5.50002 24.7C5.03336 24.9 4.65002 25.25 4.35002 25.75C4.05002 26.25 3.90002 26.7667 3.90002 27.3V29ZM16.9 12.95C18.2 12.95 19.275 12.525 20.125 11.675C20.975 10.825 21.4 9.75001 21.4 8.45001C21.4 7.15001 20.975 6.07501 20.125 5.22501C19.275 4.37501 18.2 3.95001 16.9 3.95001C15.6 3.95001 14.525 4.37501 13.675 5.22501C12.825 6.07501 12.4 7.15001 12.4 8.45001C12.4 9.75001 12.825 10.825 13.675 11.675C14.525 12.525 15.6 12.95 16.9 12.95Z" fill="#2F9FD8"/>
</svg>
