<svg width="19" height="18" viewBox="0 0 19 18" fill="none" xmlns="http://www.w3.org/2000/svg">
<path d="M8.8925 13.5H10.2425V9.765H14V8.415H10.2425V4.5H8.8925V8.415H5V9.765H8.8925V13.5ZM9.50599 18C8.26498 18 7.09873 17.7638 6.00724 17.2913C4.91575 16.8188 3.96125 16.1738 3.14375 15.3563C2.32625 14.5388 1.68125 13.5837 1.20875 12.4911C0.73625 11.3985 0.5 10.231 0.5 8.98875C0.5 7.74647 0.73625 6.57902 1.20875 5.48642C1.68125 4.39381 2.32625 3.4425 3.14375 2.6325C3.96125 1.8225 4.91631 1.18125 6.00892 0.70875C7.10152 0.23625 8.26897 0 9.51125 0C10.7535 0 11.921 0.23625 13.0136 0.70875C14.1062 1.18125 15.0575 1.8225 15.8675 2.6325C16.6775 3.4425 17.3188 4.395 17.7913 5.49C18.2638 6.585 18.5 7.75301 18.5 8.99402C18.5 10.235 18.2638 11.4013 17.7913 12.4928C17.3188 13.5843 16.6775 14.5374 15.8675 15.3521C15.0575 16.1669 14.105 16.8119 13.01 17.2871C11.915 17.7624 10.747 18 9.50599 18ZM9.51125 16.65C11.6338 16.65 13.4375 15.9038 14.9225 14.4113C16.4075 12.9188 17.15 11.1113 17.15 8.98875C17.15 6.86625 16.4089 5.0625 14.9267 3.5775C13.4445 2.0925 11.6356 1.35 9.5 1.35C7.385 1.35 5.58125 2.09109 4.08875 3.57327C2.59625 5.05547 1.85 6.86438 1.85 9C1.85 11.115 2.59625 12.9188 4.08875 14.4113C5.58125 15.9038 7.38875 16.65 9.51125 16.65Z" fill="#2F9FD8"/>
</svg>
