<svg width="15" height="19" viewBox="0 0 15 19" fill="none" xmlns="http://www.w3.org/2000/svg">
<path d="M0.0999756 16.1V14.75H1.98998V7.86499C1.98998 6.60499 2.36123 5.48374 3.10373 4.50124C3.84623 3.51874 4.82498 2.89999 6.03998 2.64499V1.99249C6.03998 1.64749 6.16373 1.36249 6.41123 1.13749C6.65873 0.912488 6.95498 0.799988 7.29998 0.799988C7.64498 0.799988 7.94123 0.912488 8.18873 1.13749C8.43623 1.36249 8.55998 1.64749 8.55998 1.99249V2.64499C9.77498 2.89999 10.7575 3.51874 11.5075 4.50124C12.2575 5.48374 12.6325 6.60499 12.6325 7.86499V14.75H14.5V16.1H0.0999756ZM7.29998 18.8C6.81998 18.8 6.39998 18.6237 6.03998 18.2712C5.67998 17.9187 5.49998 17.495 5.49998 17H9.09998C9.09998 17.495 8.92373 17.9187 8.57123 18.2712C8.21873 18.6237 7.79498 18.8 7.29998 18.8ZM3.33998 14.75H11.2825V7.86499C11.2825 6.75499 10.9 5.80999 10.135 5.02999C9.36998 4.24999 8.43248 3.85999 7.32248 3.85999C6.21248 3.85999 5.27123 4.24999 4.49873 5.02999C3.72623 5.80999 3.33998 6.75499 3.33998 7.86499V14.75Z" fill="#2F9FD8"/>
</svg>
